HIERARCHY
ROOT joint_Root
{
	OFFSET 0.0 0.0 0.0
	CHANNELS 6 Xposition Yposition Zposition Zrotation Xrotation Yrotation 
	JOINT Hips
	{
		OFFSET -17.1583 93.1646 452.98
		CHANNELS 6 Xposition Yposition Zposition Zrotation Xrotation Yrotation 
		JOINT Spine
		{
			OFFSET 15.7357 0.0 0.0
			CHANNELS 6 Xposition Yposition Zposition Zrotation Xrotation Yrotation 
			JOINT Chest
			{
				OFFSET 8.98455 -0.406207 0.0
				CHANNELS 6 Xposition Yposition Zposition Zrotation Xrotation Yrotation 
				JOINT Neck
				{
					OFFSET 16.3773 0.0 0.0
					CHANNELS 6 Xposition Yposition Zposition Zrotation Xrotation Yrotation 
					JOINT Head
					{
						OFFSET 6.45672 0.0 0.0
						CHANNELS 6 Xposition Yposition Zposition Zrotation Xrotation Yrotation 
						End Site
						{
							OFFSET 0.0 0.0 0.0
						}
					}
				}
				JOINT Shoulder_L
				{
					OFFSET 12.9942 -0.242716 4.98039
					CHANNELS 6 Xposition Yposition Zposition Zrotation Xrotation Yrotation 
					JOINT UpperArm_L
					{
						OFFSET 5.34809 0.0 0.0
						CHANNELS 6 Xposition Yposition Zposition Zrotation Xrotation Yrotation 
						JOINT LowerArm_L
						{
							OFFSET 24.3286 1.87007e-05 0.0
							CHANNELS 6 Xposition Yposition Zposition Zrotation Xrotation Yrotation 
							JOINT Hand_L
							{
								OFFSET 22.2916 0.0 0.0
								CHANNELS 6 Xposition Yposition Zposition Zrotation Xrotation Yrotation 
								End Site
								{
									OFFSET 0.0 0.0 0.0
								}
							}
						}
					}
				}
				JOINT Shoulder_R
				{
					OFFSET 12.9945 -0.242716 -4.98039
					CHANNELS 6 Xposition Yposition Zposition Zrotation Xrotation Yrotation 
					JOINT UpperArm_R
					{
						OFFSET -5.34813 0.0 0.0
						CHANNELS 6 Xposition Yposition Zposition Zrotation Xrotation Yrotation 
						JOINT LowerArm_R
						{
							OFFSET -24.3289 0.000322201 0.0
							CHANNELS 6 Xposition Yposition Zposition Zrotation Xrotation Yrotation 
							JOINT Hand_R
							{
								OFFSET -22.2915 -0.000108084 0.0
								CHANNELS 6 Xposition Yposition Zposition Zrotation Xrotation Yrotation 
								End Site
								{
									OFFSET 0.0 0.0 0.0
								}
							}
						}
					}
				}
			}
		}
		JOINT UpperLeg_L
		{
			OFFSET -2.19248 -6.46944 0.0
			CHANNELS 6 Xposition Yposition Zposition Zrotation Xrotation Yrotation 
			JOINT LowerLeg_L
			{
				OFFSET 39.0811 0.0 -1.23785e-05
				CHANNELS 6 Xposition Yposition Zposition Zrotation Xrotation Yrotation 
				JOINT Foot_L
				{
					OFFSET 40.9854 0.0 -1.26872e-05
					CHANNELS 6 Xposition Yposition Zposition Zrotation Xrotation Yrotation 
					JOINT Toes_L
					{
						OFFSET 11.7543 0.0 0.0
						CHANNELS 6 Xposition Yposition Zposition Zrotation Xrotation Yrotation 
						End Site
						{
							OFFSET 0.0 0.0 0.0
						}
					}
				}
			}
		}
		JOINT UpperLeg_R
		{
			OFFSET -2.19251 6.46944 0.0
			CHANNELS 6 Xposition Yposition Zposition Zrotation Xrotation Yrotation 
			JOINT LowerLeg_R
			{
				OFFSET -39.0811 -0.00228153 -0.0401928
				CHANNELS 6 Xposition Yposition Zposition Zrotation Xrotation Yrotation 
				JOINT Foot_R
				{
					OFFSET -40.9854 0.0 0.0
					CHANNELS 6 Xposition Yposition Zposition Zrotation Xrotation Yrotation 
					JOINT Toes_R
					{
						OFFSET -11.7543 0.0 0.0
						CHANNELS 6 Xposition Yposition Zposition Zrotation Xrotation Yrotation 
						End Site
						{
							OFFSET 0.0 0.0 0.0
						}
					}
				}
			}
		}
	}
}
MOTION
Frames:	4
Frame Time:	0.0333333
0.000000 0.000000 0.000000 0.000000 0.000000 -0.000000 -0.102761 92.857900 2.395570 88.499900 2.488940 1.389900 15.735700 0.000005 -0.000001 98.093500 86.988400 -102.392000 8.984550 -0.406207 -0.000000 -1.743210 1.204040 -8.577380 16.377300 -0.000001 -0.000001 -0.571533 -1.559650 -4.915180 6.456720 -0.000001 -0.000000 1.095250 0.560215 -19.277300 12.994200 -0.242716 4.980390 -92.419700 6.971530 -70.804400 5.348090 -0.000007 -0.000001 -63.509600 -4.684000 0.637963 24.328600 0.000019 0.000005 11.517200 26.402400 -24.618800 22.291600 -0.000001 0.000005 1.085850 4.914110 9.095270 12.994500 -0.242716 -4.980390 93.642800 -7.004750 -62.433000 -5.348130 -0.000001 -0.000004 -67.286400 -66.297200 -114.250000 -24.328900 0.000322 -0.000009 10.577500 12.803800 -40.121700 -22.291500 -0.000108 -0.000004 55.108800 5.681370 -20.260000 -2.192480 -6.469440 -0.000000 -174.094000 -3.292380 0.553939 39.081100 -0.000007 -0.000012 -0.003829 0.013739 15.568800 40.985400 -0.000006 -0.000013 0.031858 14.151700 -69.883900 11.754300 -0.000000 0.000003 -0.002451 0.201860 -8.386560 -2.192510 6.469440 -0.000001 175.791000 8.251190 -176.522000 -39.081100 -0.002282 -0.040193 -0.000274 0.017495 11.659200 -40.985400 0.000008 0.000006 -8.984060 5.229070 -68.078300 -11.754300 -0.000006 -0.000006 -0.011317 0.280898 -5.158460
0.000000 0.000000 0.000000 0.000000 0.000000 -0.000000 -0.073023 92.885300 2.283450 88.496100 2.558900 1.379300 15.735700 0.000005 -0.000001 98.736500 86.922900 -103.090000 8.984550 -0.406207 -0.000000 -1.619500 1.290650 -8.687790 16.377300 -0.000001 -0.000001 -0.585485 -1.655350 -4.856030 6.456720 -0.000001 -0.000000 1.187460 0.419422 -19.127300 12.994200 -0.242716 4.980390 -92.432100 7.029490 -70.859900 5.348090 -0.000007 -0.000001 -63.959300 -4.379350 0.489674 24.328600 0.000019 0.000005 11.507700 26.475500 -24.544800 22.291600 -0.000001 0.000005 0.938291 4.905820 9.261640 12.994500 -0.242716 -4.980390 93.599900 -6.941890 -62.501300 -5.348130 -0.000001 -0.000004 -66.463800 -66.109600 -113.216000 -24.328900 0.000322 -0.000009 9.800860 12.497000 -38.603700 -22.291500 -0.000108 -0.000004 53.126700 5.679530 -19.415400 -2.192480 -6.469440 -0.000000 -174.112000 -3.299520 0.503046 39.081100 -0.000007 -0.000012 -0.003093 0.011164 15.481000 40.985400 -0.000006 -0.000013 0.029600 14.188000 -69.819100 11.754300 -0.000000 0.000003 -0.002451 0.201857 -8.386710 -2.192510 6.469440 -0.000001 175.766000 8.299330 -176.512000 -39.081100 -0.002282 -0.040193 -0.001070 0.021695 11.481300 -40.985400 0.000008 0.000006 -9.205090 5.238270 -67.922400 -11.754300 -0.000006 -0.000006 -0.011796 0.284266 -5.020550
0.000000 0.000000 0.000000 0.000000 0.000000 -0.000000 -0.046985 92.889400 2.200380 88.478400 2.631220 1.393050 15.735700 0.000005 -0.000001 99.387000 86.847200 -103.819000 8.984550 -0.406207 -0.000000 -1.475950 1.385160 -8.844050 16.377300 -0.000001 -0.000001 -0.541065 -1.673470 -4.875540 6.456720 -0.000001 -0.000000 1.250620 0.231268 -18.897700 12.994200 -0.242716 4.980390 -92.439600 7.038970 -70.829300 5.348090 -0.000007 -0.000001 -64.366300 -4.049510 0.433711 24.328600 0.000019 0.000005 11.571100 26.632000 -24.548800 22.291600 -0.000001 0.000005 0.985528 4.909640 9.184990 12.994500 -0.242716 -4.980390 93.528500 -6.838910 -62.623300 -5.348130 -0.000001 -0.000004 -66.358300 -65.484600 -111.831000 -24.328900 0.000322 -0.000009 5.442400 7.679880 -35.490600 -22.291500 -0.000108 -0.000004 49.670800 5.673970 -18.053300 -2.192480 -6.469440 -0.000000 -174.120000 -3.247600 0.378445 39.081100 -0.000007 -0.000012 -0.003742 0.013404 15.596700 40.985400 -0.000006 -0.000013 0.056372 14.202700 -69.779500 11.754300 -0.000000 0.000003 -0.002531 0.202811 -8.347880 -2.192510 6.469440 -0.000001 175.753000 8.545670 -176.551000 -39.081100 -0.002282 -0.040193 -0.000928 0.020991 11.484200 -40.985400 0.000008 0.000006 -9.068440 5.337440 -67.826600 -11.754300 -0.000006 -0.000006 -0.011462 0.281921 -5.116580
0.000000 0.000000 0.000000 0.000000 0.000000 -0.000000 -0.011005 92.890300 2.137800 88.445200 2.709270 1.450330 15.735700 0.000005 -0.000001 100.347000 86.744600 -104.854000 8.984550 -0.406207 -0.000000 -1.285170 1.524640 -8.996120 16.377300 -0.000001 -0.000001 -0.505961 -1.611790 -5.105010 6.456720 -0.000001 -0.000000 1.360190 0.026554 -18.701900 12.994200 -0.242716 4.980390 -92.439100 7.013360 -70.768600 5.348090 -0.000007 -0.000001 -64.702900 -3.758090 0.442290 24.328600 0.000019 0.000005 11.628800 26.694200 -24.612800 22.291600 -0.000001 0.000005 0.844454 4.914280 9.091750 12.994500 -0.242716 -4.980390 93.434000 -6.677150 -62.702700 -5.348130 -0.000001 -0.000004 -66.146000 -64.884900 -109.763000 -24.328900 0.000322 -0.000009 1.588640 2.640810 -31.057300 -22.291500 -0.000108 -0.000004 48.662300 5.665340 -16.714100 -2.192480 -6.469440 -0.000000 -174.148000 -2.996690 0.301647 39.081100 -0.000007 -0.000012 -0.002797 0.009918 15.746600 40.985400 -0.000006 -0.000013 0.076448 14.030100 -69.817100 11.754300 -0.000000 0.000003 -0.002523 0.202711 -8.351950 -2.192510 6.469440 -0.000001 175.727000 8.710670 -176.513000 -39.081100 -0.002282 -0.040193 -0.001314 0.022918 11.470900 -40.985400 0.000008 0.000006 -9.167120 5.477720 -67.749100 -11.754300 -0.000006 -0.000006 -0.011496 0.282165 -5.106560
